<svg class="moon" width="50" height="50" viewBox="0 0 50 50" fill="none" xmlns="http://www.w3.org/2000/svg">
<path class="disc" d= fill="#EFC83E"/>
<path class="ray" d="M25 50C24.0025 50 23.1939 49.1913 23.1939 48.1939V42.3216C23.1939 41.3241 24.0025 40.5155 25 40.5155C25.9975 40.5155 26.8061 41.3241 26.8061 42.3216V48.1939C26.8061 49.1916 25.9975 50 25 50Z" fill="#FFF"/>
<path class="ray" d="M48.1939 26.8061H42.3216C41.3241 26.8061 40.5155 25.9975 40.5155 25C40.5155 24.0025 41.3241 23.1939 42.3216 23.1939H48.1939C49.1913 23.1939 50 24.0025 50 25C50 25.9975 49.1916 26.8061 48.1939 26.8061Z" fill="#FFF"/>
<path class="ray" d="M7.6784 26.8061H1.80611C0.808658 26.8061 0 25.9975 0 25C0 24.0025 0.808658 23.1939 1.80611 23.1939H7.6784C8.67585 23.1939 9.48451 24.0025 9.48451 25C9.48451 25.9975 8.67585 26.8061 7.6784 26.8061Z" fill="#FFF"/>
<path class="ray" d="M37.2483 14.5578C36.7862 14.5578 36.3239 14.3815 35.9713 14.0287C35.266 13.3233 35.266 12.1797 35.9713 11.4746L40.1237 7.32247C40.829 6.61712 41.9727 6.61688 42.6778 7.32247C43.3831 8.02782 43.3831 9.17145 42.6778 9.87656L38.5254 14.0287C38.1728 14.3815 37.7105 14.5578 37.2483 14.5578Z" fill="#FFF"/>
<path class="ray" d="M8.59927 43.2068C8.13715 43.2068 7.67478 43.0306 7.32223 42.6778C6.61688 41.9724 6.61688 40.8288 7.32223 40.1237L11.4746 35.9713C12.18 35.266 13.3236 35.266 14.0287 35.9713C14.734 36.6767 14.734 37.8203 14.0287 38.5254L9.87632 42.6778C9.52376 43.0306 9.06164 43.2068 8.59927 43.2068Z" fill="#FFF"/>
<path class="ray" d="M41.4005 43.2068C40.9384 43.2068 40.476 43.0306 40.1234 42.6778L35.9711 38.5254C35.2657 37.82 35.2657 36.6764 35.9711 35.9713C36.6764 35.266 37.82 35.266 38.5251 35.9713L42.6775 40.1237C43.3829 40.829 43.3829 41.9727 42.6775 42.6778C42.325 43.0306 41.8628 43.2068 41.4005 43.2068Z" fill="#FFF"/>
<path class="ray" d="M12.7517 14.5578C12.2895 14.5578 11.8272 14.3815 11.4746 14.0287L7.32223 9.87656C6.61688 9.17121 6.61688 8.02782 7.32223 7.32247C8.02758 6.61712 9.17121 6.61688 9.87632 7.32247L14.0287 11.4746C14.734 12.18 14.734 13.3233 14.0287 14.0287C13.6761 14.3815 13.214 14.5578 12.7517 14.5578Z" fill="#FFF"/>
<path class="ray" d="M36.1223 25.1652C36.1223 31.2166 31.2166 36.1223 25.1652 36.1223C19.1138 36.1223 14.2081 31.2166 14.2081 25.1652C14.2081 19.1138 19.1138 14.2081 25.1652 14.2081C31.2166 14.2081 36.1223 19.1138 36.1223 25.1652Z" fill="#FFF"/>
</svg>

<svg width="50" height="50" viewBox="0 0 50 50" fill="none" xmlns="http://www.w3.org/2000/svg">
<path d="M24.9553 9.46755C23.9596 9.46755 23.1524 8.66034 23.1524 7.66466V1.80288C23.1524 0.807211 23.9596 0 24.9553 0C25.951 0 26.7582 0.807211 26.7582 1.80288V7.66466C26.7582 8.66034 25.951 9.46755 24.9553 9.46755Z" fill="#EFC83E"/>
<path d="M24.9553 49.9106C23.9596 49.9106 23.1524 49.1034 23.1524 48.1077V42.2459C23.1524 41.2502 23.9596 40.443 24.9553 40.443C25.951 40.443 26.7582 41.2502 26.7582 42.2459V48.1077C26.7582 49.1036 25.951 49.9106 24.9553 49.9106Z" fill="#EFC83E"/>
<path d="M48.1077 26.7582H42.2459C41.2502 26.7582 40.443 25.951 40.443 24.9553C40.443 23.9596 41.2502 23.1524 42.2459 23.1524H48.1077C49.1034 23.1524 49.9106 23.9596 49.9106 24.9553C49.9106 25.951 49.1036 26.7582 48.1077 26.7582Z" fill="#EFC83E"/>
<path d="M7.66466 26.7582H1.80288C0.807211 26.7582 0 25.951 0 24.9553C0 23.9596 0.807211 23.1524 1.80288 23.1524H7.66466C8.66034 23.1524 9.46755 23.9596 9.46755 24.9553C9.46755 25.951 8.66034 26.7582 7.66466 26.7582Z" fill="#EFC83E"/>
<path d="M37.1817 14.5317C36.7204 14.5317 36.2589 14.3558 35.907 14.0036C35.2029 13.2995 35.2029 12.1579 35.907 11.4541L40.0519 7.30938C40.756 6.60529 41.8976 6.60505 42.6014 7.30938C43.3055 8.01346 43.3055 9.15505 42.6014 9.8589L38.4565 14.0036C38.1046 14.3558 37.643 14.5317 37.1817 14.5317Z" fill="#EFC83E"/>
<path d="M8.58388 43.1296C8.12259 43.1296 7.66105 42.9536 7.30913 42.6014C6.60504 41.8974 6.60504 40.7558 7.30913 40.0519L11.4541 35.907C12.1582 35.2029 13.2997 35.2029 14.0036 35.907C14.7077 36.6111 14.7077 37.7526 14.0036 38.4565L9.85864 42.6014C9.50672 42.9536 9.04542 43.1296 8.58388 43.1296Z" fill="#EFC83E"/>
<path d="M41.3264 43.1296C40.8651 43.1296 40.4036 42.9536 40.0517 42.6014L35.9067 38.4565C35.2026 37.7524 35.2026 36.6108 35.9067 35.907C36.6108 35.2029 37.7524 35.2029 38.4563 35.907L42.6012 40.0519C43.3053 40.756 43.3053 41.8976 42.6012 42.6014C42.2493 42.9536 41.788 43.1296 41.3264 43.1296Z" fill="#EFC83E"/>
<path d="M12.7288 14.5317C12.2675 14.5317 11.806 14.3558 11.4541 14.0036L7.30913 9.8589C6.60504 9.15481 6.60504 8.01346 7.30913 7.30938C8.01321 6.60529 9.1548 6.60505 9.85864 7.30938L14.0036 11.4541C14.7077 12.1582 14.7077 13.2995 14.0036 14.0036C13.6517 14.3558 13.1904 14.5317 12.7288 14.5317Z" fill="#EFC83E"/>
<path   fill="#EFC83E"/>
</svg>
